<svg enable-background="new 0 0 64 64" height="64" viewBox="0 0 64 64" width="64" xmlns="http://www.w3.org/2000/svg"><path d="m54.627 9.375c-12.496-12.5-32.756-12.5-45.254 0-12.498 12.496-12.498 32.758 0 45.254 12.496 12.495 32.758 12.495 45.254 0 12.498-12.5 12.498-32.758 0-45.254zm5.295 24.25c-6.311-.648-12.807 1.195-17.936 5.535l-7.158-7.156 18.312-18.316c4.934 5.683 7.192 12.867 6.782 19.937zm-17.934 11.195 8.324 8.324c-3.748 3.25-8.139 5.359-12.73 6.285-.51-5.128.961-10.398 4.406-14.609zm2.83-2.832c4.209-3.445 9.48-4.914 14.613-4.406-.932 4.598-3.039 8.984-6.291 12.73zm5.494-31.129-18.312 18.317-7.158-7.164c4.34-5.125 6.184-11.621 5.533-17.934 7.072-.406 14.254 1.848 19.937 6.781zm-31.128 11.153c-4.213 3.445-9.484 4.918-14.615 4.41.932-4.598 3.039-8.988 6.291-12.734zm-5.496-11.153c3.746-3.25 8.137-5.355 12.73-6.289.51 5.129-.961 10.402-4.406 14.613zm-9.61 19.516c6.311.652 12.807-1.191 17.934-5.531l7.16 7.16-18.313 18.308c-4.933-5.683-7.191-12.863-6.781-19.937zm9.61 22.766 18.312-18.313 7.158 7.16c-4.338 5.129-6.184 11.625-5.533 17.938-7.072.41-14.254-1.852-19.937-6.785z" fill="#394240"/><g fill="#f76d57"><path d="m53.141 13.688-18.313 18.316 7.158 7.156c5.129-4.34 11.625-6.184 17.936-5.535.41-7.07-1.848-14.254-6.781-19.937z"/><path d="m37.582 59.43c4.592-.926 8.982-3.035 12.73-6.285l-8.324-8.324c-3.445 4.21-4.916 9.48-4.406 14.609z"/><path d="m44.818 41.988 8.322 8.324c3.252-3.746 5.359-8.133 6.291-12.73-5.132-.508-10.404.961-14.613 4.406z"/><path d="m24.842 22.012 7.158 7.164 18.312-18.316c-5.684-4.934-12.865-7.188-19.938-6.781.651 6.312-1.192 12.808-5.532 17.933z"/><path d="m26.418 4.57c-4.594.934-8.984 3.039-12.73 6.289l8.324 8.324c3.445-4.21 4.916-9.484 4.406-14.613z"/><path d="m22.012 24.844c-5.127 4.34-11.623 6.184-17.934 5.531-.41 7.074 1.848 14.254 6.781 19.938l18.312-18.309z"/><path d="m39.158 41.988-7.158-7.16-18.312 18.313c5.684 4.934 12.865 7.195 19.938 6.785-.651-6.313 1.194-12.809 5.532-17.938z"/><path d="m19.184 22.012-8.324-8.324c-3.253 3.746-5.36 8.136-6.292 12.734 5.131.508 10.403-.965 14.616-4.41z"/></g><g fill="#231f20" opacity=".2"><path d="m37.582 59.43c4.592-.926 8.982-3.035 12.73-6.285l-8.324-8.324c-3.445 4.21-4.916 9.48-4.406 14.609z"/><path d="m44.818 41.988 8.322 8.324c3.252-3.746 5.359-8.133 6.291-12.73-5.132-.508-10.404.961-14.613 4.406z"/></g><g fill="#fff" opacity=".2"><path d="m26.418 4.57c-4.594.934-8.984 3.039-12.73 6.289l8.324 8.324c3.445-4.21 4.916-9.484 4.406-14.613z"/><path d="m4.568 26.422c5.131.508 10.402-.965 14.615-4.41l-8.324-8.324c-3.252 3.746-5.359 8.136-6.291 12.734z"/></g></svg>